<svg viewBox="0 0 64 64" xmlns="http://www.w3.org/2000/svg">
  <rect width="64" height="64" rx="14" fill="#FF7A52"/>
  <path d="M20 26 C20 24 22 22 24 21 L26 17 C26.5 15.5 28 15 29 16 L31 18.5 C31.6 18.4 32.4 18.4 33 18.5 L35 16 C36 15 37.5 15.5 38 17 L40 21 C42 22 44 24 44 26 C48 30 50 37 50 43 C50 51 43 55 32 55 C21 55 14 51 14 43 C14 37 16 30 20 26 Z" fill="#FFF3EC" stroke="#E85F32" stroke-width="2.2" stroke-linejoin="round"/>
  <path d="M22 25 Q32 30 42 25" fill="none" stroke="#E85F32" stroke-width="2.4" stroke-linecap="round"/>
  <g fill="#FF7A52">
    <ellipse cx="32" cy="44" rx="7" ry="6"/>
    <ellipse cx="24" cy="37" rx="2.7" ry="3.4"/>
    <ellipse cx="30" cy="34.5" rx="2.7" ry="3.6"/>
    <ellipse cx="36" cy="34.5" rx="2.7" ry="3.6"/>
    <ellipse cx="41" cy="37.5" rx="2.7" ry="3.4"/>
  </g>
</svg>
